<?xml version="1.0" encoding="utf-8"?>
<!-- Svg Vector Icons : http://www.onlinewebfonts.com/icon -->
<!DOCTYPE svg PUBLIC "-//W3C//DTD SVG 1.1//EN" "http://www.w3.org/Graphics/SVG/1.1/DTD/svg11.dtd">
<svg version="1.1" xmlns="http://www.w3.org/2000/svg" xmlns:xlink="http://www.w3.org/1999/xlink" x="0px" y="0px" viewBox="0 0 1000 1000" enable-background="new 0 0 1000 1000" xml:space="preserve">
<metadata> Svg Vector Icons : http://www.onlinewebfonts.com/icon </metadata>
<g><g transform="translate(0.000000,511.000000) scale(0.100000,-0.100000)"><path d="M4553.9,4981.4C4101,4861.9,3681.5,4462,3483.6,3958.2c-247-627.3-221.5-1558.4,56.8-2150.4c154.9-323.4,380.3-588.1,674.3-790c82.3-54.9,152.9-103.9,156.8-105.8c3.9-3.9-21.6-39.2-56.9-78.4c-98-111.7-190.1-264.6-225.4-376.4c-19.6-56.9-45.1-101.9-56.8-101.9c-70.6,0-539.1,66.6-772.4,107.8c-348.9,64.7-937,209.8-1513.3,370.5c-329.3,94.1-507.7,133.3-629.2,143.1c-484.2,33.3-850.8-219.6-986-678.3c-45.1-152.9-41.2-447,7.8-637.1c64.7-254.8,178.4-445,392.1-658.7c403.8-403.8,921.3-588.1,1646.6-588.1c719.4,0,1291.8,207.8,1695.6,615.5c117.6,117.6,325.4,397.9,348.9,470.5c3.9,9.8,62.7-25.5,131.3-82.3c68.6-54.9,190.1-129.4,268.6-164.7c160.7-72.5,152.9-51,123.5-319.5c-58.8-517.5-196-1140.9-460.7-2087.7c-90.2-325.4-131.3-509.7-141.1-629.2c-33.3-482.2,219.6-850.8,678.3-986c137.2-39.2,441.1-41.2,609.6-1.9c70.6,17.6,211.7,72.5,313.6,121.5c327.4,160.8,635.1,515.5,792,909.6c207.8,531.3,221.5,1344.8,31.4,1919.1c-150.9,456.7-464.6,858.6-852.7,1091.9c-64.7,39.2-119.6,72.5-123.5,76.5c-3.9,2,45.1,66.6,109.8,145c64.7,76.5,143.1,196,174.5,266.6l54.9,127.4l117.6-11.8c584.2-62.7,1309.5-217.6,2205.3-470.5c380.3-107.8,572.4-147,715.5-147c437.1,0,792,274.4,901.7,695.9c37.3,147,37.3,433.2,0,592c-135.3,572.4-648.8,1038.9-1323.2,1199.7c-374.4,90.2-944.8,103.9-1311.4,31.4c-633.2-123.5-1107.5-433.2-1393.7-911.5c-37.2-58.8-68.6-111.7-70.6-115.7c-3.9-3.9-51,33.3-105.9,82.3c-107.8,98-225.4,170.5-337.2,211.7c-86.2,29.4-84.3,13.7-43.1,335.2c62.7,497.9,201.9,1119.3,439.1,1966.1c62.7,227.4,125.5,464.6,135.3,527.3c96,535.2-162.7,970.3-662.6,1117.4C5049.8,5032.4,4738.1,5028.5,4553.9,4981.4z M5149.8,353.3c131.3-121.5,139.2-286.2,21.6-403.8c-117.6-119.6-282.3-109.8-405.8,23.5c-41.2,43.1-49,72.5-49,166.6c0,100,7.9,123.5,58.8,176.4c78.4,82.3,119.6,98,231.3,90.2C5071.4,402.3,5114.5,386.6,5149.8,353.3z"/></g></g>
</svg>